<?xml version="1.0" encoding="UTF-8" standalone="no"?>
<!-- Created with Inkscape (http://www.inkscape.org/) -->

<svg
   width="116.58854"
   height="34.192707"
   viewBox="0 0 116.58854 34.192707"
   version="1.1"
   id="SVGRoot"
   sodipodi:docname="pateo.svg"
   inkscape:export-filename="pateo.svg"
   inkscape:export-xdpi="96"
   inkscape:export-ydpi="96"
   inkscape:version="1.2.2 (732a01da63, 2022-12-09)"
   xmlns:inkscape="http://www.inkscape.org/namespaces/inkscape"
   xmlns:sodipodi="http://sodipodi.sourceforge.net/DTD/sodipodi-0.dtd"
   xmlns="http://www.w3.org/2000/svg"
   xmlns:svg="http://www.w3.org/2000/svg">
  <sodipodi:namedview
     id="namedview359"
     pagecolor="#505050"
     bordercolor="#eeeeee"
     borderopacity="1"
     inkscape:showpageshadow="0"
     inkscape:pageopacity="0"
     inkscape:pagecheckerboard="0"
     inkscape:deskcolor="#505050"
     inkscape:document-units="px"
     showgrid="true"
     inkscape:zoom="2.990248"
     inkscape:cx="73.238073"
     inkscape:cy="44.143496"
     inkscape:window-width="1920"
     inkscape:window-height="1017"
     inkscape:window-x="-8"
     inkscape:window-y="-8"
     inkscape:window-maximized="1"
     inkscape:current-layer="layer1">
    <inkscape:grid
       type="xygrid"
       id="grid365"
       originx="-9.9922071"
       originy="-44.739543" />
  </sodipodi:namedview>
  <defs
     id="defs354">
    <rect
       x="1.0032613"
       y="2.3409431"
       width="126.41092"
       height="125.07324"
       id="rect432" />
    <rect
       x="6.0195675"
       y="13.376817"
       width="93.303299"
       height="54.510529"
       id="rect426" />
  </defs>
  <g
     inkscape:label="Layer 1"
     inkscape:groupmode="layer"
     id="layer1"
     transform="translate(-9.992207,-44.739544)">
    <g
       id="text424"
       style="white-space:pre;shape-inside:url(#rect426)" />
    <g
       aria-label="Pateo"
       transform="translate(3.0097838,29.428997)"
       id="text430"
       style="font-size:53.3333px;font-family:Calibri;-inkscape-font-specification:Calibri;text-align:center;white-space:pre;shape-inside:url(#rect432)">
      <path
         d="m 27.685569,25.180325 q 0,2.52604 -0.833333,4.557289 -0.833333,2.031249 -2.395832,3.463539 -1.536458,1.432291 -3.802081,2.213541 -2.239582,0.781249 -5.36458,0.781249 H 11.46162 v 12.13541 q 0,0.208333 -0.130208,0.364583 -0.104167,0.15625 -0.364583,0.260416 -0.234375,0.07813 -0.677083,0.130209 -0.4166667,0.07813 -1.067708,0.07813 -0.6510413,0 -1.0937494,-0.07813 Q 7.7116222,49.034477 7.4512057,48.956352 7.1907892,48.852186 7.0866226,48.695936 6.982456,48.539686 6.982456,48.331353 V 17.237621 q 0,-1.041666 0.5468747,-1.484374 0.5468746,-0.442708 1.2239576,-0.442708 h 7.2135377 q 1.093749,0 2.083332,0.104167 1.015624,0.07813 2.36979,0.390625 1.380207,0.286458 2.786457,1.119791 1.43229,0.807291 2.421873,2.005207 0.989583,1.197916 1.510416,2.786456 0.546875,1.562499 0.546875,3.46354 z m -4.713539,0.364583 q 0,-2.05729 -0.78125,-3.437498 -0.755208,-1.380207 -1.90104,-2.05729 -1.119791,-0.677083 -2.343749,-0.859375 -1.197916,-0.182291 -2.343748,-0.182291 H 11.46162 v 13.515617 h 4.036456 q 2.031249,0 3.359373,-0.520833 1.354166,-0.520833 2.265624,-1.432291 0.911457,-0.9375 1.380207,-2.213541 0.46875,-1.302082 0.46875,-2.812498 z"
         id="path301" />
      <path
         d="m 50.550139,48.383436 q 0,0.3125 -0.208333,0.46875 -0.208334,0.15625 -0.572917,0.234375 -0.364583,0.07813 -1.067707,0.07813 -0.677083,0 -1.09375,-0.07813 -0.390625,-0.07813 -0.572916,-0.234375 -0.182292,-0.15625 -0.182292,-0.46875 v -2.343749 q -1.536457,1.640625 -3.437498,2.552082 -1.874998,0.911458 -3.984372,0.911458 -1.848957,0 -3.359373,-0.494791 -1.484374,-0.46875 -2.552082,-1.380208 -1.041666,-0.911458 -1.640624,-2.239582 -0.572916,-1.328124 -0.572916,-3.020831 0,-1.979166 0.807291,-3.437498 0.807291,-1.458333 2.317707,-2.421874 1.510416,-0.963541 3.697914,-1.432291 2.187499,-0.494791 4.921872,-0.494791 h 3.229165 v -1.822916 q 0,-1.354165 -0.286458,-2.395831 -0.286458,-1.041667 -0.9375,-1.718749 -0.624999,-0.703125 -1.640624,-1.041667 -1.015624,-0.364583 -2.499998,-0.364583 -1.588541,0 -2.864582,0.390625 -1.249999,0.364583 -2.21354,0.833333 -0.9375,0.442708 -1.588541,0.833333 -0.624999,0.364583 -0.937499,0.364583 -0.208333,0 -0.364583,-0.104167 -0.15625,-0.104166 -0.286459,-0.312499 -0.104166,-0.208334 -0.156249,-0.520834 -0.05208,-0.338541 -0.05208,-0.729166 0,-0.651041 0.07813,-1.015624 0.104167,-0.390625 0.442708,-0.729166 0.364583,-0.338542 1.223958,-0.78125 0.859374,-0.46875 1.979165,-0.833333 1.119791,-0.390625 2.447916,-0.624999 1.328124,-0.260417 2.68229,-0.260417 2.52604,0 4.296872,0.572916 1.770832,0.572917 2.864582,1.692708 1.093749,1.093749 1.58854,2.734373 0.494792,1.640624 0.494792,3.828123 z M 46.279308,37.680317 h -3.671873 q -1.770832,0 -3.072915,0.3125 -1.302082,0.286458 -2.161457,0.885416 -0.859374,0.572917 -1.276041,1.40625 -0.390624,0.807291 -0.390624,1.874998 0,1.822916 1.145832,2.916665 1.171875,1.067708 3.255207,1.067708 1.692707,0 3.124998,-0.859374 1.458332,-0.859375 3.046873,-2.630207 z"
         id="path303" />
      <path
         d="m 70.133463,46.638645 q 0,0.755208 -0.104167,1.197916 -0.104167,0.442708 -0.3125,0.651042 -0.208333,0.208333 -0.624999,0.390624 -0.416667,0.182292 -0.963541,0.286459 -0.520833,0.130208 -1.119791,0.208333 -0.598958,0.07813 -1.197916,0.07813 -1.822916,0 -3.124999,-0.46875 -1.302082,-0.494791 -2.135415,-1.458332 -0.833333,-0.989583 -1.223958,-2.473957 -0.364583,-1.510416 -0.364583,-3.541665 V 27.810532 h -3.281248 q -0.390624,0 -0.624999,-0.416667 -0.234375,-0.416666 -0.234375,-1.354166 0,-0.494791 0.05208,-0.833332 0.07813,-0.338542 0.182292,-0.546875 0.104166,-0.234375 0.260416,-0.3125 0.182292,-0.104167 0.390625,-0.104167 h 3.255206 v -5.572913 q 0,-0.182291 0.07813,-0.338541 0.104167,-0.15625 0.338542,-0.260417 0.260416,-0.130208 0.677083,-0.182291 0.416666,-0.05208 1.041666,-0.05208 0.651041,0 1.067707,0.05208 0.416667,0.05208 0.651042,0.182291 0.234375,0.104167 0.338541,0.260417 0.104167,0.15625 0.104167,0.338541 v 5.572913 h 6.015621 q 0.208333,0 0.364583,0.104167 0.15625,0.07813 0.260417,0.3125 0.130208,0.208333 0.182291,0.546875 0.05208,0.338541 0.05208,0.833332 0,0.9375 -0.234375,1.354166 -0.234375,0.416667 -0.625,0.416667 h -6.015621 v 13.072909 q 0,2.421873 0.703124,3.671872 0.729167,1.223958 2.578124,1.223958 0.598958,0 1.067708,-0.104167 0.468749,-0.130208 0.833332,-0.260416 0.364583,-0.130208 0.625,-0.234375 0.260417,-0.130208 0.46875,-0.130208 0.130208,0 0.234375,0.07813 0.130208,0.05208 0.182291,0.234375 0.07813,0.182291 0.130208,0.494791 0.05208,0.3125 0.05208,0.781249 z"
         id="path305" />
      <path
         d="m 95.237615,35.623027 q 0,1.015624 -0.520833,1.458333 -0.494792,0.416666 -1.145833,0.416666 H 78.206375 q 0,1.953124 0.390624,3.515623 0.390625,1.562499 1.302083,2.68229 0.911458,1.119791 2.36979,1.718749 1.458333,0.598958 3.567706,0.598958 1.666666,0 2.968749,-0.260417 1.302082,-0.286458 2.239582,-0.624999 0.963541,-0.338542 1.562499,-0.598958 0.624999,-0.286458 0.937499,-0.286458 0.182292,0 0.3125,0.104166 0.15625,0.07813 0.234375,0.260417 0.07813,0.182291 0.104166,0.520833 0.05208,0.3125 0.05208,0.781249 0,0.338542 -0.02604,0.598958 -0.02604,0.234375 -0.07813,0.442708 -0.02604,0.182292 -0.130208,0.338542 -0.07813,0.15625 -0.234375,0.3125 -0.130208,0.130208 -0.833333,0.468749 -0.703124,0.3125 -1.822915,0.625 -1.119791,0.3125 -2.604165,0.546875 -1.458333,0.260416 -3.124999,0.260416 -2.890623,0 -5.078122,-0.807291 -2.161457,-0.807291 -3.645831,-2.395832 -1.484374,-1.588541 -2.239582,-3.984373 -0.755208,-2.395832 -0.755208,-5.572913 0,-3.020831 0.78125,-5.416663 0.781249,-2.421874 2.239582,-4.08854 1.484374,-1.692707 3.567706,-2.578123 2.083332,-0.911458 4.661456,-0.911458 2.760415,0 4.687497,0.885416 1.953124,0.885416 3.203123,2.395832 1.249999,1.484374 1.822916,3.515623 0.598958,2.005207 0.598958,4.296873 z M 90.9147,34.346986 q 0.07813,-3.385415 -1.510415,-5.312497 -1.562499,-1.927082 -4.661456,-1.927082 -1.588541,0 -2.786457,0.598958 -1.197915,0.598958 -2.005207,1.588541 -0.807291,0.989583 -1.249999,2.317707 -0.442708,1.302082 -0.494791,2.734373 z"
         id="path307" />
      <path
         d="m 123.57093,36.378235 q 0,2.864582 -0.75521,5.286455 -0.75521,2.395832 -2.26563,4.140623 -1.48437,1.74479 -3.74999,2.734373 -2.23958,0.963541 -5.20833,0.963541 -2.89063,0 -5.05208,-0.859374 -2.13542,-0.859375 -3.56771,-2.499999 -1.43229,-1.640624 -2.13541,-3.984373 -0.70313,-2.343748 -0.70313,-5.312496 0,-2.864582 0.72917,-5.260414 0.7552,-2.421873 2.23958,-4.166664 1.51041,-1.744791 3.75,-2.708332 2.23958,-0.963541 5.23437,-0.963541 2.89062,0 5.02604,0.859375 2.16145,0.859374 3.59374,2.499998 1.4323,1.640624 2.13542,3.984373 0.72917,2.343748 0.72917,5.286455 z m -4.53125,0.286458 q 0,-1.90104 -0.36458,-3.593748 -0.33855,-1.692707 -1.14584,-2.968748 -0.80729,-1.276041 -2.1875,-2.005207 -1.3802,-0.755208 -3.43749,-0.755208 -1.90104,0 -3.28125,0.677083 -1.35417,0.677083 -2.23958,1.927082 -0.88542,1.223958 -1.32813,2.916665 -0.41666,1.692707 -0.41666,3.697914 0,1.927083 0.33854,3.61979 0.36458,1.692707 1.17187,2.968748 0.83333,1.249999 2.21354,2.005207 1.38021,0.729167 3.4375,0.729167 1.875,0 3.25521,-0.677083 1.3802,-0.677083 2.26562,-1.901041 0.88542,-1.223957 1.30208,-2.916665 0.41667,-1.692707 0.41667,-3.723956 z"
         id="path309" />
    </g>
    <path
       style="fill:#000000;stroke-width:0.33442"
       d=""
       id="path727" />
    <path
       style="fill:#00ff00;stroke-width:0.33442"
       d=""
       id="path729" />
    <path
       style="fill:#00ff00;stroke-width:0.33442"
       d=""
       id="path869" />
    <path
       style="fill:#5fd38d;stroke:#000000;stroke-width:0.33442;stroke-opacity:1"
       d="m 110.84384,78.321925 c -4.19974,-1.191719 -6.58949,-4.301695 -7.33281,-9.542789 -0.39911,-2.814082 0.0354,-6.67842 1.00539,-8.941293 0.89998,-2.099575 3.36685,-4.608704 5.43641,-5.529548 1.43751,-0.639612 2.33169,-0.778018 5.09365,-0.788415 3.11783,-0.01174 3.50351,0.06289 5.56358,1.076521 3.39853,1.6722 5.19653,4.538549 5.59039,8.912125 0.63207,7.018711 -1.73707,12.181564 -6.57114,14.319907 -1.93637,0.856548 -6.58567,1.117706 -8.78547,0.493492 z m 7.20657,-3.539074 c 1.65185,-0.75853 2.27165,-1.440506 3.23868,-3.563518 0.6232,-1.36818 0.75655,-2.247586 0.75883,-5.004088 0.002,-1.839313 -0.18643,-3.976941 -0.41767,-4.750286 -0.89414,-2.990334 -3.39911,-4.785721 -6.65991,-4.773352 -3.35283,0.01272 -5.54267,1.514662 -6.81549,4.674541 -0.62131,1.542466 -0.63311,7.736025 -0.018,9.476061 0.56823,1.607548 2.23044,3.527109 3.5534,4.10356 1.4881,0.648409 4.77683,0.564168 6.3602,-0.162918 z"
       id="path4217" />
    <path
       style="fill:#5fd38d;stroke:#000000;stroke-width:0.33442;stroke-opacity:1"
       d="m 83.927683,78.101224 c -3.982304,-1.30831 -6.18554,-4.297124 -6.901928,-9.362854 -0.286443,-2.0255 -0.280895,-3.258 0.02298,-5.10481 0.756935,-4.600306 2.69537,-7.573355 5.99401,-9.19323 1.653306,-0.811895 2.290893,-0.932842 4.909828,-0.931372 2.346067,0.0013 3.341643,0.155672 4.514676,0.699956 3.184304,1.477509 5.100286,4.560183 5.547534,8.925569 0.385152,3.759312 0.818896,3.582392 -8.782741,3.582392 H 81.00406 l 0.177028,1.952296 c 0.176579,1.947346 0.846866,3.679252 1.879111,4.855304 1.900211,2.164935 6.557318,2.634839 11.080019,1.117977 1.819254,-0.610157 2.573735,-0.734503 2.75246,-0.453631 0.444013,0.697779 0.268094,2.112227 -0.328779,2.643485 -1.849682,1.646347 -9.231151,2.387588 -12.636216,1.268918 z M 94.137485,63.121856 c -0.0055,-2.722581 -1.406419,-5.194696 -3.476465,-6.134798 -4.195362,-1.905304 -8.794521,0.7583 -9.437888,5.465957 l -0.21709,1.588497 h 6.566654 6.566654 l -0.0019,-0.919656 z"
       id="path4219" />
    <path
       style="fill:#5fd38d;stroke:#000000;stroke-width:0.33442;stroke-opacity:1"
       d="m 66.312681,78.425467 c -1.557205,-0.46941 -2.840425,-1.612298 -3.472729,-3.092953 -0.52131,-1.220743 -0.627105,-2.636736 -0.736222,-9.853902 l -0.127429,-8.428303 -1.893573,-0.09942 c -1.876387,-0.09852 -1.89454,-0.109482 -1.999996,-1.20813 -0.151157,-1.57475 0.402703,-2.068282 2.321103,-2.068282 h 1.631154 v -2.849744 c 0,-2.691201 0.04509,-2.870287 0.810459,-3.219013 0.457161,-0.208296 1.331853,-0.271456 2.006523,-0.144887 l 1.196063,0.224383 v 2.99463 2.994631 h 3.184164 c 3.046106,0 3.200193,0.03518 3.553858,0.81139 0.203331,0.446264 0.272483,1.19871 0.153669,1.672102 -0.214144,0.853218 -0.245278,0.860712 -3.575736,0.860712 h -3.359712 l 0.10916,7.942485 c 0.08083,5.881564 0.227932,8.175253 0.56689,8.839538 0.7912,1.550583 2.499304,1.901811 5.288505,1.087447 0.602124,-0.175802 0.778493,-0.05106 0.962099,0.680486 0.344406,1.372224 -0.314144,2.427506 -1.766591,2.83084 -1.468368,0.407756 -3.548234,0.418897 -4.851659,0.02599 z"
       id="path4221" />
    <path
       style="fill:#5fd38d;stroke:#000000;stroke-width:0.33442;stroke-opacity:1"
       d="m 39.146528,78.257014 c -2.999182,-1.068409 -4.519677,-3.178246 -4.528512,-6.283758 -0.0092,-3.247254 1.292278,-5.210765 4.341964,-6.550431 1.659416,-0.728949 5.715568,-1.381313 8.588471,-1.381313 h 1.851666 l -0.126659,-2.508225 c -0.113857,-2.254696 -0.227524,-2.609089 -1.124541,-3.506106 -1.901194,-1.901193 -6.088775,-1.907824 -9.837297,-0.01558 -2.131458,1.075957 -2.695845,0.929095 -2.695845,-0.701499 0,-1.126676 0.704907,-1.859404 2.549442,-2.650064 5.164133,-2.213606 11.666735,-1.420993 13.754265,1.676531 1.299471,1.928183 1.435458,3.222529 1.342396,12.777129 l -0.08903,9.140678 H 51.667956 50.163064 L 50.06023,76.833093 c -0.05656,-0.781708 -0.183125,-1.421287 -0.281259,-1.421287 -0.09813,0 -0.784228,0.518545 -1.524653,1.152321 -2.404336,2.058021 -6.135824,2.751602 -9.10779,1.692887 z m 6.308459,-2.979922 c 0.617539,-0.258025 1.741375,-1.027982 2.497412,-1.711016 l 1.374614,-1.241882 v -2.666037 -2.666038 l -3.59502,0.116113 c -5.265171,0.170057 -7.106434,1.325047 -7.106434,4.457739 0,3.328823 3.366334,5.158094 6.829428,3.711121 z"
       id="path4223" />
    <path
       style="fill:#5fd38d;stroke:#000000;stroke-width:0.33442;stroke-opacity:1"
       d="m 10.437793,78.213664 c -0.130884,-0.130882 -0.23797,-7.481514 -0.23797,-16.334738 0,-12.073816 0.100295,-16.197065 0.401305,-16.498074 0.631756,-0.631757 10.603299,-0.538554 12.953573,0.121076 2.744369,0.770237 4.77793,2.391701 5.92223,4.722103 0.820573,1.671123 0.951544,2.322933 0.928503,4.620919 -0.04518,4.506067 -1.991266,7.600708 -5.905192,9.390361 -1.862161,0.851477 -2.54698,0.971626 -6.183622,1.084893 l -4.089549,0.127373 -0.09071,6.403402 -0.09071,6.403401 -1.684948,0.09863 c -0.926721,0.05425 -1.792034,-0.0085 -1.922917,-0.139343 z M 23.177235,60.947218 c 3.972054,-2.628581 3.865926,-9.823911 -0.174425,-11.825749 -0.952327,-0.471841 -2.19648,-0.655242 -5.027712,-0.741135 l -3.76223,-0.114138 v 6.920489 6.92049 l 3.787457,-0.12023 c 3.466669,-0.110047 3.905139,-0.198109 5.17691,-1.039727 z"
       id="path4225" />
  </g>
</svg>
